<?xml version="1.0" encoding="utf-8"?>
<!DOCTYPE svg PUBLIC "-//W3C//DTD SVG 1.1//EN" "http://www.w3.org/Graphics/SVG/1.1/DTD/svg11.dtd">
<svg version="1.1" id="Layer_1" xmlns="http://www.w3.org/2000/svg" xmlns:xlink="http://www.w3.org/1999/xlink" x="0px" y="0px"
	 width="260px" height="90px" viewBox="0 0 260 90" enable-background="new 0 0 260 90" xml:space="preserve">
<g>
	<path fill="#A30000" d="M71.927,85.638c-13.263-0.343-24.936-0.517-34.695-0.517L7.034,85.653l-0.45-0.721
		c-0.724-1.16-1.091-2.473-1.091-3.903v-0.452l0.25-0.376c22.787-34.393,36.993-54.806,43.243-62.126H44.49
		c-8.032,0-13.62,0.337-16.609,1.001c-2.725,0.605-4.65,1.506-5.567,2.605c-2.236,2.771-3.994,7.375-5.208,13.667l-0.285,1.475
		L7.912,35.09v-1.236c0-2.259,0.285-6.208,0.872-12.072c0.7-5.954,1.647-10.979,2.818-14.962l0.429-1.459l1.454,0.45
		c4.671,1.447,14.173,2.18,28.241,2.18h10.368c7.869,0,14.57-0.231,19.917-0.686l0.914-0.078l0.486,0.777
		c0.724,1.159,1.091,2.473,1.091,3.905v0.477L31.399,73.307l16.029,0.002c8.263,0,11.351-1.671,12.486-3.073
		c1.309-1.601,3.242-5.741,5.043-16.413l0.193-1.143l8.521-0.753l0.135,1.49c0.577,6.344,0.87,12.32,0.87,17.763
		c0,5.396-0.421,9.874-1.251,13.312l-0.285,1.179L71.927,85.638z"/>
	<path fill="#FFFFFF" d="M13.041,7.243C17.879,8.741,27.44,9.49,41.726,9.49h10.368c7.948,0,14.63-0.23,20.045-0.691
		c0.576,0.922,0.863,1.958,0.863,3.11L29.111,73.943c-0.23,0.576,0,0.865,0.691,0.865h17.625c7.143,0,11.693-1.211,13.651-3.629
		c2.073-2.535,3.859-8.238,5.356-17.107l5.876-0.52c0.576,6.336,0.863,12.211,0.863,17.627c0,5.299-0.402,9.619-1.209,12.959
		c-13.363-0.346-24.941-0.518-34.733-0.518L7.856,84.139c-0.575-0.922-0.863-1.959-0.863-3.109
		c24.883-37.556,39.801-58.81,44.755-63.763c0-0.461-0.23-0.691-0.691-0.691H44.49c-8.179,0-13.824,0.346-16.935,1.037
		c-3.11,0.69-5.241,1.728-6.394,3.109c-2.419,2.996-4.262,7.776-5.529,14.343l-6.221-1.21c0-2.188,0.288-6.162,0.864-11.923
		C10.967,16.056,11.889,11.161,13.041,7.243 M11.021,3.477l-0.858,2.919c-1.195,4.064-2.16,9.173-2.866,15.185l-0.003,0.026
		l-0.003,0.026C6.7,27.547,6.412,31.545,6.412,33.854v2.473l2.427,0.472l6.221,1.21l2.949,0.574l0.57-2.95
		c1.167-6.048,2.822-10.431,4.917-13.027c0.371-0.445,1.521-1.357,4.709-2.065c2.883-0.641,8.362-0.966,16.285-0.966h1.337
		c-7.104,8.981-20.729,28.696-41.335,59.797l-0.499,0.754v0.903c0,1.715,0.443,3.296,1.318,4.697l0.899,1.441l1.699-0.029
		l29.35-0.518c9.74,0,21.391,0.174,34.629,0.517l2.424,0.063l0.569-2.357c0.858-3.552,1.293-8.148,1.293-13.663
		c0-5.487-0.294-11.51-0.875-17.898l-0.271-2.98l-2.981,0.264l-5.876,0.52l-2.308,0.204l-0.386,2.285
		C61.639,64.466,59.73,68.09,58.757,69.28c-0.622,0.769-2.952,2.528-11.329,2.528H34.297l41.154-58.167l0.551-0.779v-0.954
		c0-1.718-0.444-3.3-1.319-4.7l-0.972-1.555l-1.827,0.155C66.579,6.261,59.92,6.49,52.094,6.49H41.726
		c-13.917,0-23.27-0.711-27.797-2.113L11.021,3.477L11.021,3.477z"/>
</g>
<g>
	<path d="M156.333,85.12l-19.84,0.553l-1.96-9.802l1.676-0.14c7.258-0.604,8.968-1.081,9.365-1.259
		c0.51-0.256,0.837-1.403,0.837-3.121V38.866c0-6.927-1.306-11.744-3.881-14.318c-2.574-2.576-6.811-3.881-12.591-3.881
		c-5.701,0-11.703,1.442-17.853,4.288v46.397c0,1.541,0.313,2.584,0.932,3.101c0.434,0.264,1.927,0.857,6.854,1.28l1.095,0.094
		l2.22,9.871l-18.869-0.577L84.48,85.673l-1.959-9.802l1.676-0.14c7.257-0.604,8.967-1.081,9.365-1.259
		c0.51-0.256,0.837-1.403,0.837-3.121V30.917c0-3.684-0.638-6.319-1.845-7.619c-1.196-1.287-3.21-1.939-5.986-1.939l-3.673,0.247
		l-2.38-7.667l1.552-0.377c7.909-1.92,13.785-3.855,17.466-5.751c3.812-1.963,5.948-3.061,6.41-3.292l0.317-0.158h0.354
		c2.117,0,3.073,0.206,3.652,0.785c0.5,0.499,1.016,1.015,1.38,9.543c4.696-2.732,8.915-4.832,12.567-6.251
		c4.401-1.786,9.243-2.695,14.368-2.695c16.934,0,25.52,9.167,25.52,27.248v38.361c0,1.541,0.313,2.584,0.932,3.101
		c0.434,0.264,1.927,0.857,6.854,1.28l1.095,0.094l2.22,9.871L156.333,85.12z"/>
	<path fill="#FFFFFF" d="M106.612,5.861c1.497,0,2.361,0.115,2.592,0.346c0.461,0.46,0.807,4.147,1.037,11.06
		c5.529-3.342,10.367-5.818,14.515-7.431c4.262-1.729,8.87-2.593,13.824-2.593c16.013,0,24.02,8.583,24.02,25.748v38.361
		c0,2.074,0.518,3.514,1.555,4.32c1.037,0.691,3.571,1.209,7.604,1.555l1.555,6.912l-16.934-0.518l-18.663,0.518l-1.382-6.912
		c5.529-0.461,8.813-0.922,9.85-1.383c1.151-0.574,1.728-2.072,1.728-4.492V38.866c0-7.373-1.44-12.5-4.32-15.379
		c-2.88-2.881-7.431-4.32-13.651-4.32s-12.672,1.613-19.353,4.838v47.347c0,2.074,0.518,3.514,1.555,4.32
		c1.037,0.691,3.571,1.209,7.604,1.555l1.555,6.912l-16.935-0.518l-18.662,0.518l-1.382-6.912c5.529-0.461,8.813-0.922,9.85-1.383
		c1.151-0.574,1.728-2.072,1.728-4.492V30.917c0-4.146-0.749-7.027-2.246-8.64c-1.498-1.612-3.859-2.419-7.085-2.419l-2.592,0.172
		l-1.556-5.011c8.064-1.958,13.997-3.917,17.799-5.875S106.151,6.091,106.612,5.861 M106.612,2.861h-0.708l-0.634,0.317
		c-0.456,0.228-2.437,1.245-6.425,3.299c-3.576,1.841-9.34,3.734-17.133,5.626l-3.104,0.754l0.947,3.051l1.556,5.011l0.702,2.26
		l2.361-0.156l2.489-0.165c2.292,0.013,3.903,0.504,4.792,1.46c0.539,0.581,1.444,2.21,1.444,6.598v40.435
		c0,1.056-0.136,1.597-0.222,1.832c-0.676,0.172-2.742,0.564-8.604,1.054l-3.352,0.279l0.659,3.298l1.382,6.912l0.496,2.481
		l2.529-0.07l18.575-0.516l16.847,0.516l3.868,0.118l-0.849-3.775l-1.555-6.912l-0.482-2.144l-2.188-0.188
		c-4.229-0.362-5.674-0.835-6.083-1.01c-0.13-0.196-0.332-0.743-0.332-1.876V25.922c5.645-2.493,11.138-3.756,16.353-3.756
		c5.368,0,9.247,1.158,11.529,3.441c2.252,2.251,3.442,6.835,3.442,13.258v32.486c0,1.056-0.136,1.597-0.222,1.832
		c-0.676,0.172-2.742,0.564-8.604,1.054l-3.353,0.279l0.66,3.298l1.382,6.912l0.495,2.481l2.529-0.07l18.576-0.516l16.846,0.516
		l3.868,0.118l-0.85-3.775l-1.555-6.912l-0.481-2.144l-2.189-0.188c-4.229-0.362-5.674-0.835-6.082-1.01
		c-0.13-0.196-0.332-0.743-0.332-1.876V32.991c0-18.807-9.343-28.748-27.02-28.748c-5.319,0-10.35,0.946-14.952,2.813
		c-3.129,1.216-6.688,2.934-10.603,5.12c-0.361-6.417-0.875-7.267-1.702-8.092C110.296,3.056,108.875,2.861,106.612,2.861
		L106.612,2.861z"/>
</g>
<g>
	<path d="M206.246,85.121l-26.146-57.908c-2.6-5.747-4.323-7.962-5.311-8.808l-0.085-0.079c-1.199-1.199-3.401-1.808-6.543-1.808
		h-1.179l-2.322-9.548l2.062,0.159c5.924,0.456,12.57,0.687,19.756,0.687s13.833-0.231,19.758-0.687l1.298-0.1l2.069,9.316h-2.562
		c-7.424,0.111-10.077,1.44-10.077,2.647c0,0.797,0.296,1.792,0.879,2.958l16.681,39.928l18.106-40.219
		c0.874-2.038,0.904-2.609,0.904-2.667c0-0.959-1.974-2.022-7.514-2.129l-1.162-0.022l-2.276-9.61l17.111,0.583l13.13-0.571
		l2.041,9.447h-2.471c-2.867,0.306-4.901,1.033-5.885,2.105c-0.825,0.827-2.185,2.703-4.233,7.21l-27.013,59.113H206.246z"/>
	<path fill="#FFFFFF" d="M206.352,8.625l1.382,6.221h-0.691c-7.718,0.115-11.577,1.498-11.577,4.147
		c0,1.036,0.346,2.246,1.037,3.629l17.971,43.026l19.526-43.372c0.691-1.612,1.036-2.707,1.036-3.283
		c0-2.304-2.994-3.514-8.984-3.629l-1.556-6.566l15.206,0.519l11.924-0.519l1.382,6.394h-0.69c-3.342,0.346-5.646,1.21-6.912,2.592
		c-1.268,1.268-2.766,3.802-4.493,7.604L214.3,83.621h-7.085l-25.747-57.025c-2.188-4.838-4.089-7.948-5.702-9.33
		c-1.498-1.498-4.032-2.247-7.604-2.247l-1.555-6.394c5.99,0.461,12.613,0.691,19.871,0.691S200.36,9.086,206.352,8.625
		 M162.716,5.317l0.977,4.017l1.555,6.394l0.558,2.291h2.357c2.652,0,4.6,0.486,5.482,1.369l0.082,0.082l0.088,0.075
		c0.714,0.612,2.303,2.502,4.92,8.288l25.746,57.023l0.797,1.766h1.938h7.085h1.928l0.801-1.753l26.611-58.234
		c2.061-4.535,3.319-6.163,3.886-6.729l0.047-0.046l0.044-0.048c0.335-0.365,1.475-1.247,4.859-1.619h0.531h3.718l-0.785-3.634
		l-1.382-6.394l-0.535-2.473l-2.528,0.11l-11.807,0.513L224.598,5.8l-3.928-0.134l0.906,3.824l1.556,6.566l0.536,2.263l2.325,0.045
		c3.841,0.074,5.397,0.622,5.946,0.901c-0.101,0.332-0.3,0.9-0.688,1.805l-16.676,37.041l-15.306-36.645l-0.04-0.094l-0.045-0.091
		c-0.507-1.013-0.665-1.676-0.707-2.06c0.458-0.318,2.359-1.282,8.608-1.375l0.646,0h3.739l-0.811-3.65l-1.382-6.221l-0.564-2.541
		l-2.595,0.2c-5.887,0.453-12.495,0.683-19.643,0.683c-7.146,0-13.755-0.229-19.641-0.683L162.716,5.317L162.716,5.317z"/>
</g>
</svg>
